<svg width="2101" height="619" viewBox="0 0 2101 619" fill="none" xmlns="http://www.w3.org/2000/svg">
<path d="M1890.33 8.59722H2100.33V94.5695H1967.33V253.618H2073.03V339.59H1967.33V524.431H2100.33V610.403H1890.33V8.59722Z" fill="black"/>
<path d="M1513.67 8.59722H1623.57L1672.57 439.318H1673.97L1722.97 8.59722H1832.87V610.403H1760.07V154.75H1758.67L1702.67 610.403H1638.27L1582.27 154.75H1580.87V610.403H1513.67V8.59722Z" fill="black"/>
<path d="M1206.78 94.5695H1126.28V8.59722H1364.28V94.5695H1283.78V610.403H1206.78V94.5695Z" fill="black"/>
<path d="M976.938 619C939.605 619 911.138 606.104 891.538 580.313C871.938 553.948 862.138 516.406 862.138 467.689V8.59722H939.138V474.567C939.138 495.2 942.405 510.102 948.938 519.272C955.938 528.443 965.738 533.028 978.338 533.028C990.938 533.028 1000.5 528.443 1007.04 519.272C1014.04 510.102 1017.54 495.2 1017.54 474.567V8.59722H1091.74V467.689C1091.74 516.406 1081.94 553.948 1062.34 580.313C1042.74 606.104 1014.27 619 976.938 619Z" fill="black"/>
<path d="M695.965 619C658.165 619 629.231 605.818 609.165 579.453C589.098 553.088 579.065 515.833 579.065 467.689V151.311C579.065 103.167 589.098 65.9121 609.165 39.5472C629.231 13.1824 658.165 0 695.965 0C733.765 0 762.698 13.1824 782.765 39.5472C802.831 65.9121 812.865 103.167 812.865 151.311V467.689C812.865 515.833 802.831 553.088 782.765 579.453C762.698 605.818 733.765 619 695.965 619ZM695.965 533.028C722.565 533.028 735.865 513.254 735.865 473.707V145.293C735.865 105.746 722.565 85.9722 695.965 85.9722C669.365 85.9722 656.065 105.746 656.065 145.293V473.707C656.065 513.254 669.365 533.028 695.965 533.028Z" fill="black"/>
<path d="M301.657 8.59722H417.857C457.524 8.59722 486.457 20.0602 504.657 42.9861C522.857 65.3389 531.957 100.014 531.957 147.012V171.085C531.957 202.035 527.757 227.253 519.357 246.74C511.424 266.227 499.057 280.269 482.257 288.867V290.586C520.524 306.634 539.657 348.474 539.657 416.106V467.689C539.657 514.114 529.624 549.649 509.557 574.294C489.957 598.367 461.024 610.403 422.757 610.403H301.657V8.59722ZM408.757 253.618C424.157 253.618 435.59 248.746 443.057 239.003C450.99 229.259 454.957 212.925 454.957 189.999V156.469C454.957 134.69 451.69 118.928 445.157 109.185C439.09 99.4412 429.29 94.5695 415.757 94.5695H378.657V253.618H408.757ZM422.757 524.431C436.29 524.431 446.324 520.132 452.857 511.535C459.39 502.364 462.657 486.889 462.657 465.11V412.667C462.657 385.156 458.69 366.242 450.757 355.925C443.29 345.035 430.69 339.59 412.957 339.59H378.657V524.431H422.757Z" fill="black"/>
<path d="M80.2 8.59722H184.5L264.3 610.403H187.3L173.3 490.901V492.621H85.8L71.8 610.403H0.399994L80.2 8.59722ZM164.2 410.947L129.9 113.483H128.5L94.9 410.947H164.2Z" fill="black"/>
</svg>
