<svg width="1842" height="691" viewBox="0 0 1842 691" fill="none" xmlns="http://www.w3.org/2000/svg">
<path d="M1683.85 105.569H1603.35V9.59723H1841.35V105.569H1760.85V681.403H1683.85V105.569Z" fill="white"/>
<path d="M1464.18 691C1427.31 691 1399.08 676.604 1379.48 647.812C1360.35 619.021 1350.78 578.393 1350.78 525.928V165.072C1350.78 112.607 1360.35 71.9792 1379.48 43.1875C1399.08 14.3958 1427.31 0 1464.18 0C1501.05 0 1529.05 14.3958 1548.18 43.1875C1567.78 71.9792 1577.58 112.607 1577.58 165.072V236.092H1504.78V158.354C1504.78 116.766 1491.95 95.9722 1466.28 95.9722C1440.61 95.9722 1427.78 116.766 1427.78 158.354V533.606C1427.78 574.554 1440.61 595.028 1466.28 595.028C1491.95 595.028 1504.78 574.554 1504.78 533.606V430.915H1577.58V525.928C1577.58 578.393 1567.78 619.021 1548.18 647.812C1529.05 676.604 1501.05 691 1464.18 691Z" fill="white"/>
<path d="M1135.59 9.59723H1239.89L1319.69 681.403H1242.69L1228.69 548.001V549.921H1141.19L1127.19 681.403H1055.79L1135.59 9.59723ZM1219.59 458.747L1185.29 126.683H1183.89L1150.29 458.747H1219.59Z" fill="white"/>
<path d="M913.44 105.569H832.94V9.59723H1070.94V105.569H990.44V681.403H913.44V105.569Z" fill="white"/>
<path d="M554.509 9.59723H651.109L726.009 411.721H727.409V9.59723H796.009V681.403H716.909L624.509 190.985H623.109V681.403H554.509V9.59723Z" fill="white"/>
<path d="M385.536 691C347.736 691 318.803 676.284 298.736 646.853C278.669 617.421 268.636 575.833 268.636 522.089V168.911C268.636 115.167 278.669 73.5787 298.736 44.1472C318.803 14.7158 347.736 0 385.536 0C423.336 0 452.269 14.7158 472.336 44.1472C492.403 73.5787 502.436 115.167 502.436 168.911V522.089C502.436 575.833 492.403 617.421 472.336 646.853C452.269 676.284 423.336 691 385.536 691ZM385.536 595.028C412.136 595.028 425.436 572.954 425.436 528.807V162.193C425.436 118.046 412.136 95.9722 385.536 95.9722C358.936 95.9722 345.636 118.046 345.636 162.193V528.807C345.636 572.954 358.936 595.028 385.536 595.028Z" fill="white"/>
<path d="M113.4 691C76.5333 691 48.3 676.604 28.7 647.812C9.56667 619.021 0 578.393 0 525.928V165.072C0 112.607 9.56667 71.9792 28.7 43.1875C48.3 14.3958 76.5333 0 113.4 0C150.267 0 178.267 14.3958 197.4 43.1875C217 71.9792 226.8 112.607 226.8 165.072V236.092H154V158.354C154 116.766 141.167 95.9722 115.5 95.9722C89.8333 95.9722 77 116.766 77 158.354V533.606C77 574.554 89.8333 595.028 115.5 595.028C141.167 595.028 154 574.554 154 533.606V430.915H226.8V525.928C226.8 578.393 217 619.021 197.4 647.812C178.267 676.604 150.267 691 113.4 691Z" fill="white"/>
</svg>
