<svg width="2428" height="637" viewBox="0 0 2428 637" fill="none" xmlns="http://www.w3.org/2000/svg">
<path d="M2225.11 8.84726H2428V97.3195H2299.5V260.993H2401.62V349.465H2299.5V539.681H2428V628.153H2225.11V8.84726Z" fill="white"/>
<path d="M2071.04 637C2035.42 637 2008.14 623.729 1989.21 597.188C1970.72 570.646 1961.48 533.193 1961.48 484.828V152.172C1961.48 103.807 1970.72 66.3542 1989.21 39.8125C2008.14 13.2709 2035.42 3.05176e-05 2071.04 3.05176e-05C2106.66 3.05176e-05 2133.71 13.2709 2152.19 39.8125C2171.13 66.3542 2180.6 103.807 2180.6 152.172V217.642H2110.26V145.979C2110.26 107.641 2097.86 88.4723 2073.07 88.4723C2048.27 88.4723 2035.87 107.641 2035.87 145.979V491.906C2035.87 529.654 2048.27 548.528 2073.07 548.528C2097.86 548.528 2110.26 529.654 2110.26 491.906V397.24H2180.6V484.828C2180.6 533.193 2171.13 570.646 2152.19 597.188C2133.71 623.729 2106.66 637 2071.04 637Z" fill="white"/>
<path d="M1677.59 8.84726H1770.92L1843.29 379.546H1844.64V8.84726H1910.92V628.153H1834.5L1745.22 176.06H1743.87V628.153H1677.59V8.84726Z" fill="white"/>
<path d="M1431.9 8.84726H1634.8V97.3195H1506.3V260.993H1608.42V349.465H1506.3V539.681H1634.8V628.153H1431.9V8.84726Z" fill="white"/>
<path d="M1301.79 8.84726H1376.19V628.153H1301.79V8.84726Z" fill="white"/>
<path d="M1029.03 8.84726H1139.26C1177.59 8.84726 1205.54 20.6436 1223.13 44.2362C1240.71 67.2389 1249.5 102.923 1249.5 151.288V189.331C1249.5 253.62 1233.27 294.318 1200.81 311.422V313.192C1218.84 320.269 1231.47 334.72 1238.68 356.543C1246.35 378.366 1250.18 407.562 1250.18 444.131V552.951C1250.18 570.646 1250.63 585.096 1251.53 596.303C1252.43 606.919 1254.69 617.536 1258.29 628.153H1182.55C1179.84 618.126 1178.04 608.689 1177.14 599.842C1176.24 590.994 1175.78 575.069 1175.78 552.067V438.822C1175.78 410.511 1172.18 390.752 1164.96 379.546C1158.2 368.339 1146.25 362.736 1129.12 362.736H1103.42V628.153H1029.03V8.84726ZM1130.47 274.264C1145.35 274.264 1156.4 269.251 1163.61 259.224C1171.28 249.197 1175.11 232.387 1175.11 208.794V161.02C1175.11 138.607 1171.95 122.387 1165.64 112.36C1159.78 102.333 1150.31 97.3195 1137.24 97.3195H1103.42V274.264H1130.47Z" fill="white"/>
<path d="M783.338 8.84726H986.229V97.3195H857.731V260.993H959.853V349.465H857.731V539.681H986.229V628.153H783.338V8.84726Z" fill="white"/>
<path d="M522.459 8.84726H632.02C668.991 8.84726 696.72 21.8232 715.205 47.7751C733.691 73.7269 742.934 111.77 742.934 161.904V222.95C742.934 273.084 733.691 311.127 715.205 337.079C696.72 363.031 668.991 376.007 632.02 376.007H596.852V628.153H522.459V8.84726ZM632.02 287.535C644.193 287.535 653.211 283.111 659.072 274.264C665.384 265.417 668.54 250.376 668.54 229.143V155.711C668.54 134.478 665.384 119.438 659.072 110.59C653.211 101.743 644.193 97.3195 632.02 97.3195H596.852V287.535H632.02Z" fill="white"/>
<path d="M313.311 311.422L231.478 8.84726H309.93L359.976 208.794H361.329L412.728 8.84726H483.064L401.231 311.422L487.122 628.153H408.67L354.566 412.281H353.213L297.756 628.153H227.421L313.311 311.422Z" fill="white"/>
<path d="M0.700012 8.84726H203.591V97.3195H75.0935V260.993H177.216V349.465H75.0935V539.681H203.591V628.153H0.700012V8.84726Z" fill="white"/>
</svg>
