<svg width="2013" height="603" viewBox="0 0 2013 603" fill="none" xmlns="http://www.w3.org/2000/svg">
<path d="M1895.92 603C1858.58 603 1830.35 590.454 1811.22 565.363C1792.08 539.713 1782.52 503.191 1782.52 455.796V422.34H1855.32V462.487C1855.32 500.403 1868.62 519.361 1895.22 519.361C1908.28 519.361 1918.08 514.901 1924.62 505.979C1931.62 496.5 1935.12 481.445 1935.12 460.814C1935.12 436.28 1930.45 414.813 1921.12 396.412C1911.78 377.454 1894.52 354.872 1869.32 328.665C1837.58 295.21 1815.42 265.1 1802.82 238.335C1790.22 211.013 1783.92 180.346 1783.92 146.333C1783.92 100.053 1793.72 64.367 1813.32 39.2754C1832.92 13.6262 1861.38 0.801636 1898.72 0.801636C1935.58 0.801636 1963.35 13.6262 1982.02 39.2754C2001.15 64.367 2010.72 100.61 2010.72 148.006V172.261H1937.92V142.151C1937.92 122.078 1934.65 107.58 1928.12 98.6589C1921.58 89.1798 1912.02 84.4403 1899.42 84.4403C1873.75 84.4403 1860.92 103.12 1860.92 140.478C1860.92 161.667 1865.58 181.461 1874.92 199.862C1884.72 218.262 1902.22 240.566 1927.42 266.773C1959.62 300.228 1981.78 330.617 1993.92 357.939C2006.05 385.261 2012.12 417.322 2012.12 454.123C2012.12 502.076 2002.08 538.877 1982.02 564.526C1962.42 590.175 1933.72 603 1895.92 603Z" fill="white"/>
<path d="M1601.04 92.8042H1520.54V9.1655H1758.54V92.8042H1678.04V594.636H1601.04V92.8042Z" fill="white"/>
<path d="M1381.37 603C1344.5 603 1316.27 590.454 1296.67 565.363C1277.53 540.271 1267.97 504.864 1267.97 459.141V144.66C1267.97 98.9377 1277.53 63.5307 1296.67 38.439C1316.27 13.3474 1344.5 0.801636 1381.37 0.801636C1418.23 0.801636 1446.23 13.3474 1465.37 38.439C1484.97 63.5307 1494.77 98.9377 1494.77 144.66V206.553H1421.97V138.805C1421.97 102.562 1409.13 84.4403 1383.47 84.4403C1357.8 84.4403 1344.97 102.562 1344.97 138.805V465.833C1344.97 501.518 1357.8 519.361 1383.47 519.361C1409.13 519.361 1421.97 501.518 1421.97 465.833V376.339H1494.77V459.141C1494.77 504.864 1484.97 540.271 1465.37 565.363C1446.23 590.454 1418.23 603 1381.37 603Z" fill="white"/>
<path d="M1018.57 9.1655H1228.57V92.8042H1095.57V247.536H1201.27V331.174H1095.57V510.997H1228.57V594.636H1018.57V9.1655Z" fill="white"/>
<path d="M851.517 597.982C837.517 597.982 825.617 596.866 815.817 594.636V510.997C823.284 513.228 831.684 514.343 841.017 514.343C856.417 514.343 867.85 509.882 875.317 500.961C882.784 491.482 886.517 477.263 886.517 458.305V9.1655H963.517V455.796C963.517 503.749 954.184 539.435 935.517 562.853C917.317 586.272 889.317 597.982 851.517 597.982Z" fill="white"/>
<path d="M664.344 603C626.544 603 597.61 590.175 577.544 564.526C557.477 538.877 547.444 502.634 547.444 455.796V148.006C547.444 101.168 557.477 64.9246 577.544 39.2754C597.61 13.6262 626.544 0.801636 664.344 0.801636C702.144 0.801636 731.077 13.6262 751.144 39.2754C771.21 64.9246 781.244 101.168 781.244 148.006V455.796C781.244 502.634 771.21 538.877 751.144 564.526C731.077 590.175 702.144 603 664.344 603ZM664.344 519.361C690.944 519.361 704.244 500.124 704.244 461.651V142.151C704.244 103.677 690.944 84.4403 664.344 84.4403C637.744 84.4403 624.444 103.677 624.444 142.151V461.651C624.444 500.124 637.744 519.361 664.344 519.361Z" fill="white"/>
<path d="M270.72 9.1655H384.82C424.486 9.1655 453.42 20.3173 471.62 42.621C489.82 64.367 498.92 98.1013 498.92 143.824V179.788C498.92 240.566 482.12 279.04 448.52 295.21V296.882C467.186 303.574 480.253 317.235 487.72 337.865C495.653 358.496 499.62 386.097 499.62 420.668V523.543C499.62 540.271 500.086 553.932 501.02 564.526C501.953 574.563 504.286 584.599 508.02 594.636H429.62C426.82 585.157 424.953 576.236 424.02 567.872C423.086 559.508 422.62 544.453 422.62 522.707V415.649C422.62 388.885 418.886 370.206 411.42 359.611C404.42 349.017 392.053 343.72 374.32 343.72H347.72V594.636H270.72V9.1655ZM375.72 260.082C391.12 260.082 402.553 255.342 410.02 245.863C417.953 236.384 421.92 220.493 421.92 198.189V153.024C421.92 131.836 418.653 116.502 412.12 107.023C406.053 97.5437 396.253 92.8042 382.72 92.8042H347.72V260.082H375.72Z" fill="white"/>
<path d="M0.700012 9.1655H114.1C152.367 9.1655 181.067 21.4325 200.2 45.9665C219.333 70.5005 228.9 106.465 228.9 153.86V211.571C228.9 258.966 219.333 294.931 200.2 319.465C181.067 343.999 152.367 356.266 114.1 356.266H77.7V594.636H0.700012V9.1655ZM114.1 272.627C126.7 272.627 136.033 268.445 142.1 260.082C148.633 251.718 151.9 237.499 151.9 217.426V148.006C151.9 127.932 148.633 113.714 142.1 105.35C136.033 96.9861 126.7 92.8042 114.1 92.8042H77.7V272.627H114.1Z" fill="white"/>
</svg>
