<svg width="920" height="550" viewBox="0 0 920 550" fill="none" xmlns="http://www.w3.org/2000/svg">
<path d="M860.137 7.62626H920V541.465H860.137V7.62626Z" fill="white"/>
<path d="M708.706 83.8889H646.122V7.62626H831.154V83.8889H768.569V541.465H708.706V83.8889Z" fill="white"/>
<path d="M429.658 7.62626H504.759L562.99 327.167H564.078V7.62626H617.411V541.465H555.915L484.079 151.763H482.991V541.465H429.658V7.62626Z" fill="white"/>
<path d="M257.488 7.62626H338.575L400.615 541.465H340.752L329.868 435.46V436.985H261.842L250.957 541.465H195.448L257.488 7.62626ZM322.793 364.535L296.127 100.667H295.038L268.916 364.535H322.793Z" fill="white"/>
<path d="M88.1621 549.091C59.1375 549.091 37.1877 537.651 22.3126 514.773C7.43754 491.386 0 458.084 0 414.869V384.364H56.5979V420.97C56.5979 455.542 66.9379 472.828 87.6178 472.828C97.7764 472.828 105.395 468.761 110.475 460.626C115.917 451.983 118.638 438.256 118.638 419.444C118.638 397.074 115.01 377.5 107.754 360.722C100.497 343.436 87.0736 322.845 67.4821 298.949C42.8112 268.444 25.5779 240.99 15.7821 216.586C5.98631 191.673 1.08842 163.71 1.08842 132.697C1.08842 90.4983 8.70736 57.9596 23.9452 35.0808C39.1831 11.6936 61.3143 0 90.3389 0C119.001 0 140.588 11.6936 155.1 35.0808C169.975 57.9596 177.413 91.0067 177.413 134.222V156.338H120.815V128.884C120.815 110.581 118.275 97.362 113.196 89.2273C108.116 80.5842 100.679 76.2626 90.8831 76.2626C70.9287 76.2626 60.9515 93.2946 60.9515 127.359C60.9515 146.678 64.5796 164.727 71.8358 181.505C79.4547 198.283 93.06 218.62 112.652 242.515C137.685 273.02 154.918 300.729 164.351 325.641C173.784 350.554 178.501 379.788 178.501 413.343C178.501 457.067 170.701 490.623 155.1 514.01C139.862 537.397 117.549 549.091 88.1621 549.091Z" fill="white"/>
</svg>
