<svg width="1695" height="548" viewBox="0 0 1695 548" fill="none" xmlns="http://www.w3.org/2000/svg">
<path d="M1578.34 548C1541.01 548 1512.77 536.583 1493.64 513.75C1474.51 490.409 1464.94 457.174 1464.94 414.044V383.6H1537.74V420.133C1537.74 454.637 1551.04 471.889 1577.64 471.889C1590.71 471.889 1600.51 467.83 1607.04 459.711C1614.04 451.085 1617.54 437.385 1617.54 418.611C1617.54 396.285 1612.87 376.75 1603.54 360.006C1594.21 342.754 1576.94 322.204 1551.74 298.356C1520.01 267.911 1497.84 240.511 1485.24 216.156C1472.64 191.293 1466.34 163.385 1466.34 132.433C1466.34 90.3185 1476.14 57.8445 1495.74 35.0111C1515.34 11.6704 1543.81 0 1581.14 0C1618.01 0 1645.77 11.6704 1664.44 35.0111C1683.57 57.8445 1693.14 90.8259 1693.14 133.956V156.028H1620.34V128.628C1620.34 110.361 1617.07 97.1685 1610.54 89.05C1604.01 80.4241 1594.44 76.1111 1581.84 76.1111C1556.17 76.1111 1543.34 93.1093 1543.34 127.106C1543.34 146.387 1548.01 164.4 1557.34 181.144C1567.14 197.889 1584.64 218.185 1609.84 242.033C1642.04 272.478 1664.21 300.131 1676.34 324.994C1688.47 349.857 1694.54 379.033 1694.54 412.522C1694.54 456.159 1684.51 489.648 1664.44 512.989C1644.84 536.33 1616.14 548 1578.34 548Z" fill="black"/>
<path d="M1237.62 7.61111H1314.62V464.278H1441.32V540.389H1237.62V7.61111Z" fill="black"/>
<path d="M1016.16 7.61111H1120.46L1200.26 540.389H1123.26L1109.26 434.594V436.117H1021.76L1007.76 540.389H936.359L1016.16 7.61111ZM1100.16 363.811L1065.86 100.467H1064.46L1030.86 363.811H1100.16Z" fill="black"/>
<path d="M821.991 7.61111H898.991V540.389H821.991V7.61111Z" fill="black"/>
<path d="M662.523 548C625.656 548 597.423 536.583 577.823 513.75C558.689 490.917 549.123 458.696 549.123 417.089V130.911C549.123 89.3037 558.689 57.0834 577.823 34.25C597.423 11.4167 625.656 0 662.523 0C699.389 0 727.389 11.4167 746.523 34.25C766.123 57.0834 775.923 89.3037 775.923 130.911V187.233H703.123V125.583C703.123 92.6019 690.289 76.1111 664.623 76.1111C638.956 76.1111 626.123 92.6019 626.123 125.583V423.178C626.123 455.652 638.956 471.889 664.623 471.889C690.289 471.889 703.123 455.652 703.123 423.178V341.739H775.923V417.089C775.923 458.696 766.123 490.917 746.523 513.75C727.389 536.583 699.389 548 662.523 548Z" fill="black"/>
<path d="M385.049 548C347.249 548 318.316 536.33 298.249 512.989C278.183 489.648 268.149 456.667 268.149 414.044V133.956C268.149 91.3333 278.183 58.3519 298.249 35.0111C318.316 11.6704 347.249 0 385.049 0C422.849 0 451.782 11.6704 471.849 35.0111C491.916 58.3519 501.949 91.3333 501.949 133.956V414.044C501.949 456.667 491.916 489.648 471.849 512.989C451.782 536.33 422.849 548 385.049 548ZM385.049 471.889C411.649 471.889 424.949 454.383 424.949 419.372V128.628C424.949 93.6167 411.649 76.1111 385.049 76.1111C358.449 76.1111 345.149 93.6167 345.149 128.628V419.372C345.149 454.383 358.449 471.889 385.049 471.889Z" fill="black"/>
<path d="M113.4 548C76.0667 548 47.8333 536.583 28.7 513.75C9.56667 490.409 0 457.174 0 414.044V383.6H72.8V420.133C72.8 454.637 86.1 471.889 112.7 471.889C125.767 471.889 135.567 467.83 142.1 459.711C149.1 451.085 152.6 437.385 152.6 418.611C152.6 396.285 147.933 376.75 138.6 360.006C129.267 342.754 112 322.204 86.8 298.356C55.0667 267.911 32.9 240.511 20.3 216.156C7.7 191.293 1.4 163.385 1.4 132.433C1.4 90.3185 11.2 57.8445 30.8 35.0111C50.4 11.6704 78.8667 0 116.2 0C153.067 0 180.833 11.6704 199.5 35.0111C218.633 57.8445 228.2 90.8259 228.2 133.956V156.028H155.4V128.628C155.4 110.361 152.133 97.1685 145.6 89.05C139.067 80.4241 129.5 76.1111 116.9 76.1111C91.2333 76.1111 78.4 93.1093 78.4 127.106C78.4 146.387 83.0667 164.4 92.4 181.144C102.2 197.889 119.7 218.185 144.9 242.033C177.1 272.478 199.267 300.131 211.4 324.994C223.533 349.857 229.6 379.033 229.6 412.522C229.6 456.159 219.567 489.648 199.5 512.989C179.9 536.33 151.2 548 113.4 548Z" fill="black"/>
</svg>
